<svg width="38" height="83" viewBox="0 0 38 83" fill="none" xmlns="http://www.w3.org/2000/svg">
<path d="M21.5 38C21.5 36.6193 20.3807 35.5 19 35.5C17.6193 35.5 16.5 36.6193 16.5 38H21.5ZM17.2322 81.7678C18.2085 82.7441 19.7915 82.7441 20.7678 81.7678L36.6777 65.8579C37.654 64.8816 37.654 63.2986 36.6777 62.3223C35.7014 61.346 34.1184 61.346 33.1421 62.3223L19 76.4645L4.85786 62.3223C3.88155 61.346 2.29864 61.346 1.32233 62.3223C0.34602 63.2986 0.34602 64.8816 1.32233 65.8579L17.2322 81.7678ZM16.5 38L16.5 80H21.5L21.5 38H16.5Z" fill="#323232"/>
<circle cx="19" cy="14" r="11.5" stroke="#323232" stroke-width="5"/>
</svg>
