<svg width="47" height="47" viewBox="0 0 47 47" fill="none" xmlns="http://www.w3.org/2000/svg">
<path d="M10 31C12.3 31 14 29.1 14 26.7V25.3C14 22.9 12.3 21 10 21C7.7 21 6 22.9 6 25.3V26.7C6 29.1 7.7 31 10 31Z" stroke="white" stroke-width="2" stroke-miterlimit="10"/>
<path d="M14 47V40L16.7 41.4C17.5 41.8 18.4 41.6 19 41L22 38C24.2 36 24.6 34 23 32C21 33.8 19 35.3 18 36C16.7 35.3 14.1 34.1 12 34C8.7 34 7.7 34 7 34C3.4 34 1 35.5 1 40V47" stroke="white" stroke-width="2" stroke-miterlimit="10" stroke-linejoin="round"/>
<path d="M5 40V47" stroke="white" stroke-width="2" stroke-miterlimit="10"/>
<path d="M27 24V23C27 22.1 26.2 21.3 25.6 20.6C24.7 19.6 24 18.4 24 17C24 14.2 26.2 12 29 12C31.8 12 34 14.2 34 17C34 18.5 33.4 19.7 32.4 20.6C31.8 21.2 31 22.1 31 23V24H27Z" stroke="white" stroke-width="2" stroke-miterlimit="10" stroke-linejoin="round"/>
<path d="M29 9V4" stroke="white" stroke-width="2" stroke-miterlimit="10" stroke-linejoin="round"/>
<path d="M22.6008 10.6008L19.8008 7.80078" stroke="white" stroke-width="2" stroke-miterlimit="10" stroke-linejoin="round"/>
<path d="M21 17H16" stroke="white" stroke-width="2" stroke-miterlimit="10" stroke-linejoin="round"/>
<path d="M22.6008 23.4004L19.8008 26.2004" stroke="white" stroke-width="2" stroke-miterlimit="10" stroke-linejoin="round"/>
<path d="M35.4004 23.4004L38.2004 26.2004" stroke="white" stroke-width="2" stroke-miterlimit="10" stroke-linejoin="round"/>
<path d="M37 17H42" stroke="white" stroke-width="2" stroke-miterlimit="10" stroke-linejoin="round"/>
<path d="M35.4004 10.6008L38.2004 7.80078" stroke="white" stroke-width="2" stroke-miterlimit="10" stroke-linejoin="round"/>
<path d="M27 24V26L28 27H30L31 26V24" stroke="white" stroke-width="2" stroke-miterlimit="10" stroke-linejoin="round"/>
<path d="M11 18V4C11 2.3 12.3 1 14 1H43C44.7 1 46 2.3 46 4V29C46 30.7 44.7 32 43 32H38L31.7 39C31.1 39.7 30 39.3 30 38.3V32H26" stroke="white" stroke-width="2" stroke-miterlimit="10" stroke-linejoin="round"/>
</svg>
