<svg width="48" height="47" viewBox="0 0 48 47" fill="none" xmlns="http://www.w3.org/2000/svg">
<path d="M40.5 10.5C42.9853 10.5 45 8.48528 45 6C45 3.51472 42.9853 1.5 40.5 1.5C38.0147 1.5 36 3.51472 36 6C36 8.48528 38.0147 10.5 40.5 10.5Z" stroke="white" stroke-width="2" stroke-miterlimit="10" stroke-linejoin="round"/>
<path d="M30 21.5V46.5" stroke="white" stroke-width="2" stroke-miterlimit="10" stroke-linejoin="round"/>
<path d="M33 38.5C33 38.5 34.4 38.5 38.6 38.5C43.2 38.5 46.9 34.8 46.9 30.2C46.9 25.6 43.2 21.9 38.6 21.9C38.6 21.9 38.6 21.9 38.5 21.9C38 17.7 34.2 14.5 29.9 14.5C25.6 14.5 22.4 17.7 22 21.9" stroke="white" stroke-width="2" stroke-miterlimit="10" stroke-linejoin="round"/>
<path d="M26 29.5L30 33.5" stroke="white" stroke-width="2" stroke-miterlimit="10" stroke-linejoin="round"/>
<path d="M34 29.5L30 33.5" stroke="white" stroke-width="2" stroke-miterlimit="10" stroke-linejoin="round"/>
<path d="M11 39.4992C5.5 39.4992 1 34.9992 1 29.4992C1 23.9992 11 8.69922 11 8.69922C11 8.69922 21 23.8992 21 29.4992C21 33.9992 18.1 37.7992 14 38.9992" stroke="white" stroke-width="2" stroke-miterlimit="10" stroke-linejoin="round"/>
<path d="M11 20.5V46.5" stroke="white" stroke-width="2" stroke-miterlimit="10" stroke-linejoin="round"/>
<path d="M6 29.5L11 34.5" stroke="white" stroke-width="2" stroke-miterlimit="10" stroke-linejoin="round"/>
<path d="M15 24.5L11 28.5" stroke="white" stroke-width="2" stroke-miterlimit="10" stroke-linejoin="round"/>
<path d="M30 38.5H21" stroke="white" stroke-width="2" stroke-miterlimit="10" stroke-linejoin="round"/>
</svg>
