<svg width="37" height="48" viewBox="0 0 37 48" fill="none" xmlns="http://www.w3.org/2000/svg">
<path d="M19 45C19 45 19 43.9 19 43C19 42.1 16.2 39.7 15.5 38.6C15.1 37.9 12 29.2 12 29.2C12 28.2 14.4 27 16.1 29.2L18.7 33.3L20 32V17C20 15.9 20.9 15 22 15C23.1 15 24 15.9 24 17V30V29V24H26C26.6 24 27.6 24.4 28 25H30C30.9 25 32 25.9 32 27H34C34.9 27 36 27.9 36 29V39C36 41 34 42.7 34 44C34 45.3 34 45 34 45" stroke="white" stroke-width="2" stroke-miterlimit="10"/>
<path d="M28 25V30" stroke="white" stroke-width="2" stroke-miterlimit="10"/>
<path d="M32 27V31" stroke="white" stroke-width="2" stroke-miterlimit="10"/>
<path d="M36 48V45H17V48" stroke="white" stroke-width="2" stroke-miterlimit="10"/>
<path d="M17.9995 24.4992L14.9995 22.9992L7.49951 26.6992C6.99951 26.8992 6.49951 26.4992 6.59951 25.9992L8.09951 18.0992L1.89951 11.9992C1.49951 11.5992 1.69951 10.8992 2.29951 10.8992L10.6995 10.1992L14.3995 2.19922C14.5995 1.69922 15.3995 1.69922 15.5995 2.19922L19.2995 10.1992L27.6995 10.8992C28.2995 10.8992 28.4995 11.5992 28.0995 11.9992L26.0995 13.9992" stroke="white" stroke-width="2" stroke-miterlimit="10" stroke-linejoin="round"/>
</svg>
